<svg width="224" height="46" viewBox="0 0 224 46" fill="none" xmlns="http://www.w3.org/2000/svg">
<path d="M2.73857 37V9.42143H8.33143L16.2771 31.0986H16.3543L24.3386 9.42143H29.9314V37H25.7657V15.5929H25.6886L18.09 37H14.58L6.98143 15.5929H6.90429V37H2.73857ZM33.744 37V17.3286H37.524V37H33.744ZM33.5125 13.8186V9.73H37.794V13.8186H33.5125ZM49.6357 37.5786C43.7728 37.5786 39.9543 33.3357 39.9543 27.1643C39.9543 20.9929 43.7728 16.75 49.5971 16.75C54.65 16.75 58.0057 20.0286 58.4686 24.4643H54.5728C54.38 22.42 53.2228 19.8743 49.6357 19.8743C45.4314 19.8743 43.8886 23.4614 43.8886 27.1643C43.8886 30.8671 45.4314 34.4157 49.6357 34.4157C53.2614 34.4157 54.38 31.9471 54.5728 29.71H58.4686C58.1986 34.2229 54.6886 37.5786 49.6357 37.5786ZM66.1539 37.54C62.2196 37.54 59.7125 35.2643 59.7125 31.9086C59.7125 27.5114 63.0296 26.2 67.9282 25.2743C71.0139 24.6957 72.9039 24.31 72.9039 22.3814C72.9039 20.9543 72.0553 19.7586 69.1625 19.7586C65.7296 19.7586 64.6882 20.8386 64.4953 23.4614H60.6382C60.8311 19.6814 63.2996 16.7114 69.3168 16.7114C73.3668 16.7114 76.6068 18.4086 76.6068 23.5V32.5257C76.6068 33.9529 76.7996 34.6857 77.5325 34.6857C77.6482 34.6857 77.7639 34.6857 77.9953 34.6471V36.9614C77.3396 37.1157 76.6839 37.1929 76.0668 37.1929C74.1768 37.1929 73.1739 36.46 72.9425 34.2229H72.8653C71.5925 36.2671 69.3553 37.54 66.1539 37.54ZM63.6468 31.6386C63.6468 33.49 64.6496 34.4929 67.0025 34.4929C70.3968 34.4929 72.9039 32.7571 72.9039 29.3243V26.5086C72.2868 27.0871 70.5896 27.5114 68.5839 27.9357C65.1125 28.63 63.6468 29.5943 63.6468 31.6386ZM93.5493 24.3871C93.5493 21.7643 92.3921 19.99 89.5378 19.99C86.2978 19.99 84.215 21.9571 84.215 24.9271V37H80.435V9.42143H84.215V19.7971H84.2921C85.3336 18.2929 87.3778 16.75 90.7721 16.75C94.3978 16.75 97.3293 18.8329 97.3293 23.3457V37H93.5493V24.3871ZM120.084 37.54C112.254 37.54 107.201 31.5229 107.201 23.23C107.201 14.8986 112.292 8.88143 120.122 8.88143C127.027 8.88143 131.308 13.2786 131.964 18.7943H127.528C127.027 16.0943 125.329 12.5457 120.045 12.5457C113.951 12.5457 111.637 17.7143 111.637 23.1914C111.637 28.7071 113.951 33.8757 120.045 33.8757C125.368 33.8757 127.258 30.3271 127.528 26.9714H131.964C131.347 33.1043 127.027 37.54 120.084 37.54ZM139.721 37.54C135.787 37.54 133.28 35.2643 133.28 31.9086C133.28 27.5114 136.597 26.2 141.496 25.2743C144.581 24.6957 146.471 24.31 146.471 22.3814C146.471 20.9543 145.623 19.7586 142.73 19.7586C139.297 19.7586 138.256 20.8386 138.063 23.4614H134.206C134.399 19.6814 136.867 16.7114 142.884 16.7114C146.934 16.7114 150.174 18.4086 150.174 23.5V32.5257C150.174 33.9529 150.367 34.6857 151.1 34.6857C151.216 34.6857 151.331 34.6857 151.563 34.6471V36.9614C150.907 37.1157 150.251 37.1929 149.634 37.1929C147.744 37.1929 146.741 36.46 146.51 34.2229H146.433C145.16 36.2671 142.923 37.54 139.721 37.54ZM137.214 31.6386C137.214 33.49 138.217 34.4929 140.57 34.4929C143.964 34.4929 146.471 32.7571 146.471 29.3243V26.5086C145.854 27.0871 144.157 27.5114 142.151 27.9357C138.68 28.63 137.214 29.5943 137.214 31.6386ZM157.782 26.8171V37H154.002V17.3286H157.782V21.07H157.86C158.901 18.6014 160.482 16.8657 163.144 16.8657C163.838 16.8657 164.378 16.9043 164.957 16.9814V20.6071C164.494 20.53 164.147 20.4914 163.684 20.4914C160.251 20.4914 157.782 23.0757 157.782 26.8171ZM170.421 26.8171V37H166.641V17.3286H170.421V21.07H170.498C171.539 18.6014 173.121 16.8657 175.782 16.8657C176.476 16.8657 177.016 16.9043 177.595 16.9814V20.6071C177.132 20.53 176.785 20.4914 176.322 20.4914C172.889 20.4914 170.421 23.0757 170.421 26.8171ZM187.244 37.5786C181.112 37.5786 177.409 33.3357 177.409 27.1643C177.409 21.0314 181.112 16.7114 187.283 16.7114C193.377 16.7114 197.08 20.9929 197.08 27.1257C197.08 33.2971 193.377 37.5786 187.244 37.5786ZM181.343 27.1643C181.343 31.2529 183.194 34.4543 187.283 34.4543C191.294 34.4543 193.146 31.2529 193.146 27.1643C193.146 23.0371 191.294 19.8743 187.283 19.8743C183.194 19.8743 181.343 23.0371 181.343 27.1643ZM199.526 37V9.42143H203.306V37H199.526ZM206.777 37V9.42143H210.557V37H206.777Z" fill="white"/>
<path d="M219.42 36.9879C216.95 36.9879 215 35.0752 215 32.4939C215 29.9127 216.95 28 219.42 28C221.889 28 223.839 29.9127 223.839 32.4939C223.839 35.0752 221.889 36.9879 219.42 36.9879ZM215.873 32.4939C215.873 34.6666 217.377 36.2265 219.42 36.2265C221.462 36.2265 222.967 34.6666 222.967 32.4939C222.967 30.3213 221.462 28.7614 219.42 28.7614C217.377 28.7614 215.873 30.3213 215.873 32.4939ZM217.563 34.9452V30.0056H219.624C220.775 30.0056 221.388 30.5255 221.388 31.454C221.388 32.1411 220.98 32.5496 220.348 32.6982V32.7168C221.611 32.921 221.202 34.7966 221.5 34.8895V34.9452H220.237C219.995 34.7223 220.404 33.1996 219.253 33.1996H218.788V34.9452H217.563ZM218.788 32.2154H219.29C219.791 32.2154 220.218 32.104 220.218 31.5654C220.218 31.0269 219.791 30.9341 219.29 30.9341H218.788V32.2154Z" fill="white"/>
</svg>
