<svg width="152" height="64" viewBox="0 0 152 64" fill="none" xmlns="http://www.w3.org/2000/svg">
<path fill-rule="evenodd" clip-rule="evenodd" d="M107.09 39.1966C107.09 40.8773 108.403 42.278 110.067 42.278C111.73 42.278 113.043 40.8773 113.043 39.1966V29.1121H118.208V40.3171C118.208 44.0521 114.531 47.1334 109.979 47.1334C105.427 47.1334 101.75 44.0521 101.75 40.3171V29.1121H107.003V39.1966H107.09V39.1966ZM130.025 46.4797H135.278V17.0667H130.025V46.4797ZM121.184 46.4797H126.436V17.0667H121.184V46.4797ZM25.0662 23.2294H22.1774V46.4797H16.575V18.4673H26.2042C30.5812 18.4673 34.0827 22.2023 34.0827 26.7776C34.0827 30.606 31.5441 33.9675 28.0425 34.8079L35.746 46.5731H29.1806L23.5781 37.4224V30.6994H24.8911C26.9921 30.6994 28.6553 29.0186 28.6553 27.0577C28.6553 24.9101 27.0796 23.2294 25.0662 23.2294V23.2294" fill="white"/>
<path fill-rule="evenodd" clip-rule="evenodd" d="M40.7359 35.7415C40.6483 33.874 41.9614 32.1933 43.7997 32.0999C45.5505 32.0065 47.1262 33.4072 47.2138 35.368C47.2138 35.4614 47.2138 35.6482 47.2138 35.7415H40.7359ZM52.291 38.9164C52.291 38.5429 52.3786 38.1694 52.3786 37.7025C52.4661 31.6332 48.7019 28.2717 43.8873 28.2717C39.0727 28.2717 35.221 32.4735 35.221 37.6091C35.221 42.7448 39.0727 46.9466 43.8873 46.9466C47.5639 46.9466 50.3652 45.1725 51.8533 42.4646L47.5639 40.317C46.9512 41.6243 45.6381 42.4646 44.2375 42.4646C42.2241 42.4646 40.6484 40.8773 40.6484 39.0098V38.823C40.7359 38.9164 52.291 38.9164 52.291 38.9164ZM64.1962 42.1844C62.0953 42.1844 60.3445 40.1301 60.3445 37.7024C60.3445 35.1813 62.0953 33.2204 64.1962 33.2204C66.2972 33.2204 68.0479 35.2746 68.0479 37.7024C68.0479 40.2235 66.2972 42.1844 64.1962 42.1844ZM73.2129 46.4797V17.0667H67.9605V30.9795C66.5599 29.4855 64.6341 28.6451 62.7082 28.6451C58.4188 28.6451 54.8297 32.7536 54.8297 37.7959C54.8297 42.8381 58.3313 46.9466 62.7082 46.9466C64.7216 46.9466 66.6474 46.0128 68.0481 44.5188V46.4797H73.2129V46.4797ZM91.0706 41.6242H86.0809V23.2294H89.5825C91.1582 23.2294 92.3837 24.7234 92.3837 26.4041C92.3837 28.0849 91.1582 29.3921 89.5825 29.3921H87.7442V34.4344H91.0706C92.9089 34.4344 94.3096 36.0217 94.3096 37.9826V38.076C94.222 40.0369 93.084 41.5309 91.0706 41.6242M95.4476 31.2595C96.9358 29.8589 97.7236 27.898 97.7236 25.8438C97.7236 23.9763 97.0233 22.2022 95.7978 20.8016C94.5722 19.3076 92.2962 18.5606 89.3199 18.5606H80.3909V46.573H92.0336C96.4981 46.4796 100.087 42.9314 100.087 38.5428C99.9996 35.2747 98.9492 33.0337 95.4476 31.2595" fill="white"/>
</svg>
