<svg width="152" height="65" viewBox="0 0 152 65" fill="none" xmlns="http://www.w3.org/2000/svg">
<path d="M109.504 45.3254V27.9621C109.504 27.9621 109.504 27.9567 109.504 27.9546C109.499 22.9544 105.507 18.8854 100.596 18.884C95.6892 18.8854 91.6956 22.9578 91.6936 27.9648V36.2148C91.6936 41.2217 95.6886 45.2955 100.599 45.2955C102.712 45.2955 104.726 44.5434 106.329 43.1661V45.3464C106.327 48.5114 103.635 51.1855 100.451 51.1855C98.6932 51.1855 96.9422 50.3703 95.8801 49.0587C95.8768 49.0547 95.8734 49.0513 95.8708 49.0472C95.5675 48.6749 95.1239 48.4619 94.6497 48.4619C93.7745 48.4619 93.0623 49.1883 93.0623 50.0807C93.0623 50.4503 93.1886 50.8125 93.4174 51.1C93.4201 51.1041 93.4234 51.1082 93.4261 51.1116C95.1006 53.1847 97.7269 54.4224 100.451 54.4224C105.443 54.4224 109.505 50.3486 109.505 45.3417C109.505 45.3362 109.505 45.3315 109.505 45.3267L109.504 45.3254ZM106.329 27.9641V36.2141C106.329 39.4361 103.759 42.0579 100.599 42.0579C97.4383 42.0579 94.8679 39.4368 94.8679 36.2121V27.9641C94.8679 24.7421 97.4383 22.1203 100.599 22.1203C103.759 22.1203 106.329 24.7414 106.329 27.9641Z" fill="white"/>
<path d="M78.1214 18.8829C73.2074 18.8829 69.2071 22.9588 69.2031 27.9691C69.2031 27.9718 69.2031 27.9745 69.2031 27.9773V42.9235C69.2031 43.8174 69.9161 44.5444 70.7926 44.5444C71.6691 44.5444 72.3821 43.8174 72.3821 42.9229V27.9766C72.3821 24.7498 74.9565 22.1246 78.1208 22.1246C81.2851 22.1246 83.8595 24.7498 83.8595 27.9766V42.9229C83.8595 43.8167 84.5724 44.5437 85.4489 44.5437C86.3255 44.5437 87.0384 43.8167 87.0384 42.9229V27.9732C87.0364 22.9608 83.0361 18.8829 78.1201 18.8829H78.1214Z" fill="white"/>
<path d="M56.1753 20.5553C56.17 20.5512 56.1646 20.5472 56.1593 20.5431C56.1593 20.5431 56.1307 20.5234 56.1301 20.5228C54.629 19.4512 52.8647 18.8843 51.0497 18.8843H51.0478C51.0398 18.8836 51.0271 18.8829 51.0192 18.8829C46.3745 18.8843 43.002 22.7078 43.0007 27.9542C43.0007 27.9617 43 27.9698 43 27.9773V42.9235C43 43.8174 43.7129 44.5444 44.5895 44.5444C45.466 44.5444 46.1789 43.8174 46.1789 42.9235V27.9773C46.1789 24.4223 48.0796 22.1253 51.0218 22.1253C52.2189 22.1253 53.3654 22.4969 54.3384 23.2009C54.3444 23.2056 54.351 23.2097 54.357 23.2131C54.6204 23.3942 54.9263 23.4891 55.2435 23.4891C56.1201 23.4891 56.8337 22.7621 56.8337 21.8676C56.8337 21.3488 56.5876 20.8598 56.1746 20.5546L56.1753 20.5553Z" fill="white"/>
<path d="M52.8398 22.7265L52.8404 22.7258L52.8391 22.7265H52.8398Z" fill="#000F30"/>
<path d="M62.2917 20.3174C61.4172 20.3174 60.7056 21.043 60.7056 21.9348V42.9311C60.7056 43.8229 61.4172 44.5486 62.2917 44.5486C63.1662 44.5486 63.8778 43.8229 63.8778 42.9311V21.9348C63.8778 21.043 63.1662 20.3174 62.2917 20.3174Z" fill="white"/>
<path d="M62.2664 10.9999C60.8924 10.9999 59.7744 12.1399 59.7744 13.541C59.7744 14.9421 60.8924 16.0814 62.2664 16.0814C63.6403 16.0814 64.7576 14.9414 64.7576 13.541C64.7576 12.1406 63.6397 10.9999 62.2664 10.9999Z" fill="white"/>
</svg>
