<svg width="152" height="63" viewBox="0 0 152 63" fill="none" xmlns="http://www.w3.org/2000/svg">
<path d="M0.709806 25.7564C0.709806 20.3452 11.7107 19.2218 12.4006 25.7002C12.4192 26.1309 12.2328 26.3368 11.9158 26.3368H9.17491C8.8579 26.3368 8.70878 26.187 8.63415 25.85C8.20533 23.3036 4.42028 23.884 4.42028 25.7564C4.42028 28.6773 12.6803 26.5241 12.6803 32.0289C12.6803 38.1328 0.635226 38.2826 0.00127659 31.7854C-0.017369 31.3923 0.169087 31.2237 0.504707 31.2237H3.24561C3.54394 31.2237 3.71175 31.3923 3.78633 31.748C4.25247 34.2945 8.83928 34.1821 8.83928 32.0289C8.83928 29.2952 0.709806 31.2237 0.709806 25.7564ZM23.6066 22.1614C23.6066 21.8057 23.7558 21.5997 24.1659 21.5997H26.7763C27.1679 21.5997 27.3543 21.8057 27.3543 22.1614V29.4824C27.3543 33.1149 25.0982 36.4664 20.6233 36.4664C16.1484 36.4664 13.8736 33.1149 13.8736 29.4824L13.8549 22.1614C13.8549 21.8057 14.0601 21.5997 14.4329 21.5997H17.0806C17.5094 21.5997 17.6586 21.8057 17.6586 22.1614L17.6773 29.4824C17.6773 32.2349 19.0757 33.0961 20.6233 33.0961C22.1708 33.0961 23.5879 32.2349 23.5879 29.4824L23.6066 22.1614ZM56.1245 27.3292H49.0392C49.0392 25.85 50.4748 24.1274 52.7682 24.1274C55.0617 24.1274 56.1245 25.85 56.1245 27.3292ZM59.8536 29.5199V28.9956C59.8536 24.7828 57.4483 21.1503 52.675 21.1503C49.1324 21.1503 46.5966 23.5095 45.6643 26.599C45.2541 27.9471 45.1982 29.4075 45.4965 30.8118C46.2423 34.257 48.9086 36.8783 52.675 36.8783C53.2717 36.8783 58.1941 36.8783 59.7044 32.0476C59.7976 31.7293 59.6671 31.6169 59.4061 31.6169H56.4228C56.2364 31.6169 56.1058 31.7106 56.0126 31.8978C55.7142 32.5344 54.9312 33.7889 52.675 33.7889C50.6799 33.7889 49.0392 31.9914 49.0392 30.119H59.2756C59.6485 30.119 59.8536 29.8943 59.8536 29.5199ZM137.214 27.3666H130.651C130.651 25.9249 131.863 24.2398 134.119 24.2398C136.375 24.2398 137.214 25.9249 137.214 27.3666ZM141.223 29.5199V28.9956C141.223 24.7828 138.799 21.1503 134.026 21.1503C130.483 21.1503 127.947 23.4908 127.015 26.599C126.586 27.9471 126.53 29.4075 126.847 30.8118C127.575 34.257 130.259 36.8783 134.026 36.8783C134.622 36.8783 139.545 36.8783 141.074 32.0663C141.167 31.7293 141.036 31.6169 140.757 31.6169H137.792C137.587 31.6169 137.457 31.7106 137.363 31.8978C137.065 32.5344 136.282 33.8076 134.026 33.8076C132.03 33.8076 130.576 32.0101 130.576 30.119H140.626C141.018 30.119 141.223 29.8943 141.223 29.5199ZM151.217 21.5997C151.739 21.5997 152 21.8993 152 22.4423V24.633C152 25.1947 151.701 25.4381 151.142 25.4381C147.88 25.4381 146.313 26.9734 146.313 30.9242V35.8859C146.313 36.2417 146.089 36.429 145.772 36.429H142.994C142.677 36.429 142.49 36.2417 142.49 35.8859V30.9242C142.49 27.5164 143.441 21.5997 151.217 21.5997ZM116.76 21.5997H113.758C113.553 21.5997 113.478 21.6746 113.404 21.8993L110.383 30.8867L108.034 21.8993C107.978 21.6746 107.884 21.5997 107.68 21.5997H104.156C103.857 21.5997 103.895 21.787 103.95 21.9929L107.567 36.0357C107.642 36.3541 107.773 36.429 108.127 36.429H111.875C112.154 36.429 112.323 36.3166 112.416 36.017L115.268 27.2543L118.103 36.017C118.196 36.3166 118.382 36.429 118.643 36.429H122.409C122.764 36.429 122.894 36.3541 122.969 36.0357L126.586 21.9929C126.642 21.787 126.679 21.5997 126.363 21.5997H122.857C122.633 21.5997 122.54 21.6746 122.484 21.8993L120.135 30.8867L117.132 21.8993C117.058 21.6746 116.965 21.5997 116.76 21.5997ZM92.4276 28.9956C92.4276 26.3556 93.8443 24.6517 96.1003 24.6517C98.357 24.6517 99.979 26.3556 99.979 28.9956C99.979 31.6357 98.3009 33.377 96.1003 33.377C93.9004 33.377 92.4276 31.6544 92.4276 28.9956ZM96.1003 21.1503C91.7005 21.1503 88.5304 24.7828 88.5304 28.9956C88.5304 33.2085 91.7005 36.8783 96.1003 36.8783C100.501 36.8783 103.876 33.3208 103.876 28.9956C103.876 24.6704 100.333 21.1503 96.1003 21.1503ZM69.9597 21.5997C70.4814 21.5997 70.7423 21.8993 70.7423 22.4423V24.633C70.7423 25.1947 70.4445 25.4381 69.8851 25.4381C66.6219 25.4381 65.0557 26.9734 65.0557 30.9242V35.8859C65.0557 36.2417 64.832 36.429 64.515 36.429H61.7368C61.4198 36.429 61.2333 36.2417 61.2333 35.8859V30.9242C61.2333 27.5164 62.1843 21.5997 69.9597 21.5997ZM75.8514 28.6961C75.8514 31.2986 77.2502 33.0025 79.4686 33.0025C81.6877 33.0025 83.2536 31.3174 83.2536 28.6961C83.2536 26.0747 81.6315 24.427 79.4686 24.427C77.3057 24.427 75.8514 26.1122 75.8514 28.6961ZM76.0568 34.9123V40.9976C76.0568 41.3533 75.8514 41.5405 75.5344 41.5405H72.7375C72.4205 41.5405 72.2342 41.3533 72.2342 40.9976V22.4236C72.2342 21.8806 72.5328 21.5997 73.073 21.5997H75.3852C75.9445 21.5997 76.0568 21.8806 76.0568 22.4236V23.7717H76.2616C79.1146 18.3792 87.2439 21.3001 87.2439 28.6961C87.2439 36.6349 78.9839 38.0579 76.0568 34.9123ZM32.5937 28.6961C32.5937 31.2986 34.0108 33.0025 36.211 33.0025C38.4112 33.0025 39.9961 31.3174 39.9961 28.6961C39.9961 26.0747 38.3925 24.427 36.211 24.427C34.0294 24.427 32.5937 26.1122 32.5937 28.6961ZM32.7615 34.9123V40.9976C32.7615 41.3533 32.5378 41.5405 32.2208 41.5405H29.4427C29.107 41.5405 28.9392 41.3533 28.9392 40.9976V22.4236C28.9392 21.8806 29.2189 21.5997 29.7596 21.5997H32.0904C32.6497 21.5997 32.7615 21.8806 32.7615 22.4236V23.7717H32.948C35.8008 18.3792 43.9303 21.3001 43.9303 28.6961C43.9303 36.6349 35.6703 38.0579 32.7615 34.9123Z" fill="white"/>
</svg>
