<svg width="152" height="63" viewBox="0 0 152 63" fill="none" xmlns="http://www.w3.org/2000/svg">
<path fill-rule="evenodd" clip-rule="evenodd" d="M88.8111 32.4968C88.8111 32.4968 87.6962 11 94.3865 11C101.077 11 96.6166 23.8981 96.6166 23.8981C97.4884 23.581 98.1613 23.3051 98.7443 23.0662C100.678 22.2737 101.62 21.8872 105.536 21.7484C111.111 21.7484 116.535 25.6 116.687 32.4968C116.234 39.5515 111.112 43.2452 103.307 43.2452C94.3865 43.2452 89.8247 40.5718 88.8111 32.4968ZM109.231 32.4971C110.238 36.7961 106.343 38.9461 102.782 38.9461C98.6024 38.7501 96.7166 35.8486 97.3404 32.4971C97.6834 30.6529 99.3726 28.6641 101.64 28.1978C106.227 27.2541 108.655 30.0403 109.231 32.4971ZM42.5234 19.5987C42.5234 19.3489 42.5259 18.5063 42.5234 18.2579C42.4928 15.3002 42.4591 13.1435 46.8243 13.1463C50.6994 13.1487 50.389 16.0329 50.1496 18.2579C50.0967 18.7498 50.0472 19.2095 50.0472 19.5987C50.0472 20.4894 51.524 20.642 53.2536 20.8208C55.6988 21.0735 58.6493 21.3785 58.6476 23.8945C58.6458 26.438 56.3011 26.6911 53.9918 26.9403C52.401 27.1119 50.827 27.2818 50.0472 28.1974C48.1357 30.4422 49.3728 37.5219 52.1969 35.7213C56.2471 33.1392 57.5982 33.9789 58.646 34.6434C59.9316 35.4585 59.9541 37.5829 58.6476 38.9428C54.4413 43.3209 50.5816 43.2731 48.341 43.2455C48.1854 43.2435 48.0376 43.2418 47.8981 43.2415C41.159 42.3925 41.3728 32.023 41.4391 28.8107C41.4443 28.5601 41.4485 28.353 41.4485 28.1974C41.4485 27.307 40.3421 27.1535 39.0459 26.9737C37.2129 26.7195 35.0003 26.4125 35 23.8944C34.9997 21.5907 37.1602 21.4485 39.1658 21.3164C40.9027 21.202 42.5234 21.0953 42.5234 19.5987ZM67.7705 23.3701C65.7398 18.9338 62.6852 20.043 61.6784 21.152C60.6713 22.2609 60.3461 25.3675 61.6699 28.9156C63.183 32.3297 65.0949 35.7213 69.3943 38.9458C71.544 40.0207 69.7611 42.2379 65.0949 45.3949C65.0949 45.3949 60.7957 47.4762 60.7957 49.6943C60.7957 51.9125 61.8706 52.9189 67.2446 51.844C69.9139 50.9339 72.0755 48.9954 73.5688 47.6564L73.6937 47.5446C80.0447 41.855 84.681 36.0798 86.5919 30.3471C87.6667 27.1226 87.6728 24.0935 86.5919 21.7484C85.5693 19.5301 82.3269 19.1502 80.1428 23.8981C79.9183 24.386 79.6387 25.2119 79.3059 26.1943C78.1252 29.6801 76.2771 35.1368 73.8626 34.461C71.3795 33.7658 69.3993 28.0082 68.3604 24.9878C68.1044 24.2434 67.9056 23.6653 67.7705 23.3701Z" fill="white"/>
</svg>
