<svg width="152" height="75" viewBox="0 0 152 75" fill="none" xmlns="http://www.w3.org/2000/svg">
<path d="M50.3076 0C57.0423 0.000126297 63.0291 3.20361 66.8174 8.16113C70.2667 4.57169 75.0609 2.33887 80.3691 2.33887C87.4313 2.33901 93.5816 6.27883 96.8672 12.1133C99.72 10.8389 102.877 10.126 106.186 10.126C118.919 10.126 129.231 20.5319 129.231 33.3818C129.231 46.2319 118.907 56.6387 106.186 56.6387C104.631 56.6386 103.111 56.4866 101.649 56.1826C98.7614 61.3272 93.2542 64.8114 86.9404 64.8115C84.2979 64.8115 81.7948 64.2036 79.5732 63.1162C76.6501 70.0031 69.822 74.832 61.8828 74.832C53.9436 74.832 46.5535 69.5939 43.8408 62.251C42.66 62.4965 41.4325 62.6367 40.1699 62.6367C30.3132 62.6367 22.3273 54.5693 22.3271 44.6074C22.3271 37.931 25.9163 32.1073 31.248 28.9854C30.1491 26.4599 29.541 23.6651 29.541 20.7422C29.5412 9.28367 38.8374 0 50.3076 0ZM84.5908 26.1328C83.4683 26.1328 82.5914 26.4487 81.9717 27.0801C81.352 27.6997 80.9312 28.6465 80.7324 29.8857L80.6621 30.3066H79.2588C79.2588 30.3066 79.0829 30.307 79.0479 30.4824L78.8145 31.7686C78.8028 31.897 78.8494 31.9667 79.0127 31.9668H80.3809L78.9902 39.7197C78.885 40.3393 78.7555 40.8535 78.6152 41.251C78.4749 41.6368 78.3463 41.9175 78.1826 42.1279C78.019 42.3265 77.879 42.4787 77.6221 42.5605C77.4116 42.6307 77.1654 42.666 76.8965 42.666C76.7445 42.666 76.5455 42.6425 76.3936 42.6074C76.2419 42.584 76.1715 42.5487 76.0547 42.502C76.0474 42.4994 75.8901 42.4476 75.833 42.6074C75.7862 42.736 75.4122 43.7411 75.377 43.8701C75.3302 43.987 75.4005 44.0918 75.4707 44.1152C75.6576 44.1853 75.786 44.2209 76.0312 44.2793C76.3703 44.3611 76.6628 44.3613 76.9434 44.3613C77.5163 44.3613 78.0312 44.279 78.4639 44.127C78.8963 43.9749 79.2704 43.6944 79.6094 43.332C79.9718 42.9345 80.1939 42.5133 80.416 41.9404C80.6264 41.3792 80.8138 40.6777 80.9658 39.8594L82.3574 31.9551H84.4033C84.4033 31.9551 84.5791 31.9555 84.6143 31.7803L84.8477 30.4941C84.8593 30.3656 84.8127 30.2951 84.6494 30.2949H82.6729C82.6748 30.2814 82.7799 29.5519 83 28.8916C83.0935 28.6112 83.2807 28.3892 83.4326 28.2256C83.5846 28.0736 83.7603 27.9686 83.9473 27.8984C84.146 27.84 84.3687 27.8047 84.6143 27.8047C84.801 27.8047 84.9878 27.8282 85.1279 27.8516C85.315 27.8866 85.3976 27.9102 85.4443 27.9336C85.6427 27.9918 85.6779 27.9332 85.7129 27.8398L86.1924 26.542C86.2392 26.4017 86.122 26.3427 86.0752 26.3311L86.04 26.3428C85.8415 26.2844 85.6662 26.2382 85.4326 26.2031C85.1989 26.1564 84.9064 26.1328 84.5908 26.1328ZM41.4795 30.0957C39.4686 30.0958 38.0654 31.3126 38.0654 33.043V33.0781C38.0657 34.9134 39.6089 35.4981 41.0586 35.9189L41.293 35.9893C42.3452 36.3166 43.2568 36.5974 43.2568 37.334V37.3691C43.2567 38.0471 42.6607 38.5497 41.7139 38.5498C41.3397 38.5498 40.1583 38.5499 38.8838 37.7314C38.7319 37.638 38.6384 37.5789 38.5215 37.5088C38.4628 37.4737 38.2996 37.4044 38.2295 37.6025L37.7969 38.8066H37.8203C37.7502 38.982 37.8438 39.0177 37.8672 39.0527C38.0658 39.1929 38.276 39.2983 38.4746 39.4268C39.562 39.9997 40.5913 40.1748 41.667 40.1748C43.8651 40.1748 45.2217 39.0055 45.2217 37.1348V37.0996C45.2215 35.3695 43.6782 34.7382 42.2402 34.2822L42.0527 34.2236C40.9653 33.8729 40.0303 33.5687 40.0303 32.8438V32.8086C40.0304 32.2008 40.5794 31.7453 41.4326 31.7451C42.3797 31.7451 43.5026 32.0605 44.2158 32.458C44.2158 32.458 44.426 32.5982 44.5078 32.3877C44.5546 32.2708 44.9168 31.2897 44.9521 31.1836C44.9988 31.0669 44.9177 30.9853 44.8477 30.9385C44.0175 30.4357 42.883 30.0957 41.7021 30.0957H41.4795ZM73.5752 30.0957C71.5641 30.0957 70.1611 31.3125 70.1611 33.043V33.0781C70.1614 34.9135 71.7045 35.498 73.1543 35.9189L73.3877 35.9893C74.44 36.3166 75.3525 36.5974 75.3525 37.334V37.3691C75.3524 38.0472 74.7556 38.5498 73.8086 38.5498C73.4342 38.5498 72.2536 38.5496 70.9795 37.7314C70.8275 37.6379 70.7341 37.5789 70.6172 37.5088C70.5821 37.4854 70.3944 37.4156 70.3242 37.6025L69.8916 38.8066H69.915C69.8449 38.982 69.9385 39.0177 69.9619 39.0527C70.1607 39.193 70.3715 39.2981 70.5703 39.4268C71.6575 39.9995 72.6862 40.1748 73.7617 40.1748C75.9599 40.1748 77.3164 39.0056 77.3164 37.1348V37.0996C77.3162 35.3694 75.7847 34.7382 74.335 34.2822L74.1475 34.2236C73.0602 33.8729 72.125 33.5686 72.125 32.8438V32.8086C72.1251 32.2007 72.6749 31.7451 73.5283 31.7451C74.4752 31.7451 75.5973 32.0606 76.3105 32.458C76.3105 32.458 76.5217 32.5982 76.6035 32.3877C76.6506 32.2698 77.0128 31.2888 77.0479 31.1836C77.0946 31.0668 77.0125 30.9853 76.9424 30.9385C76.1122 30.4357 74.9778 30.0957 73.7969 30.0957H73.5752ZM106.372 30.1201C105.601 30.1201 104.922 30.2487 104.326 30.5176C103.742 30.7748 103.25 31.1377 102.853 31.582C102.455 32.0263 102.163 32.564 101.964 33.1719C101.765 33.7799 101.66 34.4352 101.66 35.1484C101.66 36.6682 102.069 37.8957 102.876 38.7959C103.683 39.6962 104.899 40.1523 106.489 40.1523C107.425 40.1523 108.383 39.9652 109.085 39.6846C109.089 39.6828 109.213 39.6238 109.155 39.4629L108.711 38.2236L108.699 38.2002C108.641 38.0248 108.465 38.0947 108.465 38.0947C108.196 38.1999 107.915 38.2931 107.611 38.3398C107.307 38.3866 106.969 38.4101 106.606 38.4102C105.718 38.4102 105.015 38.1414 104.513 37.627C104.01 37.1008 103.718 36.2589 103.729 35.125C103.729 34.0844 103.987 33.3121 104.432 32.7158C104.876 32.1197 105.554 31.8271 106.466 31.8271C107.226 31.8272 107.799 31.9096 108.407 32.1084C108.417 32.1121 108.55 32.1596 108.617 31.9795C108.781 31.5352 108.898 31.2195 109.073 30.7285C109.12 30.5882 109.003 30.5293 108.956 30.5176C108.722 30.424 108.161 30.2723 107.74 30.2139C107.343 30.1554 106.887 30.1201 106.372 30.1201ZM50.4824 30.1084C50.0147 30.1084 49.2656 30.1672 48.8213 30.2607C48.7955 30.2657 47.4604 30.5221 46.916 30.9619C46.916 30.9619 46.799 31.0326 46.8574 31.208L47.3018 32.3887C47.3583 32.5358 47.4915 32.4968 47.5 32.4941C47.5 32.4941 47.5471 32.4706 47.6055 32.4473C48.7981 31.8042 50.3066 31.8154 50.3066 31.8154C50.9728 31.8154 51.4871 31.9559 51.8379 32.2129C52.177 32.4701 52.3525 32.8681 52.3525 33.6865V33.9443C51.8349 33.8638 51.3514 33.8283 51.3359 33.8271L51.3477 33.8154C51.0905 33.792 50.7744 33.792 50.377 33.792C49.8508 33.792 49.3358 33.8616 48.8447 33.9902C48.3654 34.1189 47.921 34.318 47.5469 34.5869C47.1728 34.8558 46.8686 35.1953 46.6465 35.6045C46.4245 36.0135 46.3194 36.4928 46.3193 37.0303C46.3193 37.568 46.4126 38.0595 46.5996 38.4453C46.7867 38.8312 47.0565 39.1588 47.4072 39.416C47.7463 39.6615 48.179 39.8489 48.6699 39.9658C49.1609 40.071 49.7104 40.1289 50.3066 40.1289C50.938 40.1289 51.5814 40.0711 52.1895 39.9775C52.7974 39.8723 53.5454 39.7196 53.7441 39.6729C53.951 39.6269 54.1694 39.5703 54.1768 39.5684C54.3288 39.5333 54.3174 39.3691 54.3174 39.3691V33.6982C54.3174 32.4589 53.978 31.5348 53.3232 30.9619C52.6685 30.3892 51.7215 30.1085 50.4824 30.1084ZM64.6895 30.1084C63.9179 30.1084 63.2164 30.237 62.6436 30.5059C62.0706 30.7748 61.591 31.1377 61.2168 31.5938C60.8427 32.0497 60.5621 32.5875 60.375 33.207C60.1996 33.815 60.1064 34.482 60.1064 35.1836C60.1065 35.885 60.1997 36.563 60.3867 37.1592C60.5738 37.7672 60.8779 38.294 61.2871 38.7383C61.6962 39.1824 62.2224 39.5328 62.8418 39.7666C63.4614 40.0121 64.2218 40.1289 65.0869 40.1289C66.8755 40.1289 67.823 39.7203 68.209 39.5098C68.2791 39.4747 68.3377 39.4039 68.2559 39.2168L67.8467 38.083C67.79 37.9244 67.6235 37.9743 67.6133 37.9775C67.169 38.1412 66.5367 38.4336 65.0635 38.4336C64.1049 38.4335 63.3915 38.1532 62.9473 37.709C62.4914 37.253 62.2695 36.5865 62.2227 35.6514H68.4199C68.4279 35.6513 68.5833 35.647 68.5947 35.499C68.5947 35.4289 68.8057 34.2244 68.4082 32.833L68.4434 32.8213C68.2914 32.2367 67.9047 31.64 67.6475 31.3711C67.2501 30.9387 66.8642 30.646 66.4668 30.4707C65.9641 30.2486 65.3558 30.1084 64.6895 30.1084ZM89.4648 30.1084C88.7168 30.1084 88.0621 30.2371 87.501 30.5059C86.9398 30.7631 86.4718 31.126 86.0977 31.5703C85.7236 32.0145 85.443 32.5523 85.2676 33.1602C85.0922 33.7682 84.998 34.4234 84.998 35.125C84.9981 35.8264 85.0922 36.4926 85.2676 37.0889C85.443 37.6969 85.7235 38.2354 86.0977 38.6797C86.4718 39.1239 86.9516 39.486 87.501 39.7432C88.0621 40.0003 88.7167 40.1289 89.4648 40.1289C90.2132 40.1289 90.8684 40.0004 91.4297 39.7432C91.9906 39.486 92.458 39.1354 92.832 38.6797C93.2062 38.2354 93.4867 37.6969 93.6621 37.0889C93.8375 36.481 93.9316 35.8264 93.9316 35.125C93.9316 34.4234 93.8375 33.7565 93.6621 33.1602C93.4867 32.5523 93.2061 32.0145 92.832 31.5703C92.4579 31.1261 91.9908 30.7631 91.4297 30.5059C90.8684 30.2486 90.2132 30.1084 89.4648 30.1084ZM114.312 30.1084C113.541 30.1084 112.839 30.2369 112.266 30.5059C111.693 30.7748 111.214 31.1378 110.84 31.5938C110.466 32.0497 110.185 32.5874 109.998 33.207C109.823 33.815 109.729 34.482 109.729 35.1836C109.729 35.885 109.823 36.563 110.01 37.1592C110.197 37.7672 110.5 38.294 110.909 38.7383C111.318 39.1826 111.845 39.5328 112.465 39.7666C113.085 40.0121 113.845 40.1289 114.71 40.1289C116.499 40.1289 117.446 39.7202 117.832 39.5098C117.902 39.4747 117.96 39.4037 117.89 39.2168L117.48 38.083C117.423 37.922 117.252 37.9758 117.247 37.9775C116.803 38.1412 116.171 38.4336 114.698 38.4336C113.74 38.4336 113.026 38.1532 112.582 37.709C112.126 37.253 111.903 36.5866 111.856 35.6514H118.054C118.054 35.6514 118.218 35.651 118.229 35.499C118.229 35.4289 118.44 34.2244 118.042 32.833L118.065 32.8213C117.913 32.2367 117.528 31.64 117.271 31.3711C116.873 30.9386 116.487 30.6461 116.09 30.4707C115.587 30.2486 114.979 30.1084 114.312 30.1084ZM100.188 30.2256C99.4051 30.1788 98.9718 30.307 98.5859 30.4824C98.2001 30.6578 97.7797 30.9392 97.5342 31.2549V30.4941C97.534 30.3891 97.4635 30.3076 97.3584 30.3076H95.7686C95.6635 30.3076 95.593 30.3891 95.5928 30.4941V39.7432C95.5928 39.8484 95.675 39.9307 95.7803 39.9307H97.4053C97.5105 39.9307 97.5928 39.8484 97.5928 39.7432V35.125C97.5928 34.5055 97.6625 33.8859 97.8027 33.5C97.9313 33.1142 98.1187 32.81 98.3408 32.5879C98.5629 32.3658 98.82 32.2137 99.1006 32.1318C99.3928 32.0383 99.7085 32.0147 99.9307 32.0146C100.258 32.0146 100.609 32.0967 100.609 32.0967C100.726 32.1082 100.796 32.0377 100.831 31.9326C100.936 31.6519 101.24 30.7984 101.299 30.6348L101.322 30.623C101.369 30.4828 101.275 30.4131 101.229 30.4014C101.123 30.3663 100.598 30.249 100.188 30.2256ZM56.541 26.3311C56.4358 26.3311 56.3652 26.4133 56.3652 26.5186V39.7422C56.3652 39.8474 56.4358 39.9297 56.541 39.9297H58.1895C58.2947 39.9297 58.3652 39.8474 58.3652 39.7422V26.5186C58.3652 26.4133 58.2947 26.3311 58.1895 26.3311H56.541ZM50.6807 35.3467C51.5603 35.3467 52.3484 35.4845 52.3643 35.4873V38.3047C52.3519 38.3073 51.5739 38.4693 50.6924 38.5273C49.4441 38.5967 48.8813 38.1747 48.8799 38.165C48.6345 37.9664 48.5993 37.9195 48.5176 37.8027C48.4007 37.6157 48.3311 37.3466 48.3311 36.9961C48.3311 36.4466 48.5058 36.0599 48.8799 35.791C48.8799 35.791 49.418 35.3233 50.6807 35.3467ZM89.4531 31.7803C90.2715 31.7803 90.8446 32.0611 91.2305 32.6455C91.6163 33.2301 91.8154 34.061 91.8154 35.125L91.8174 35.5127C91.7741 36.3926 91.5798 37.0934 91.2422 37.6152C90.8563 38.1999 90.2716 38.4805 89.4648 38.4805C88.6581 38.4805 88.0733 38.1999 87.6875 37.6152C87.3017 37.019 87.1026 36.1889 87.1025 35.125C87.1025 34.061 87.3016 33.2301 87.6758 32.6455C88.0616 32.0611 88.6348 31.7803 89.4531 31.7803ZM64.5615 31.7578C65.3797 31.7579 65.9062 32.0728 66.3037 32.6572C66.5609 33.0431 66.6661 33.5462 66.7129 34.1191H62.2812C62.3631 33.5346 62.527 33.0431 62.7842 32.6572C63.17 32.0729 63.7433 31.7578 64.5615 31.7578ZM114.184 31.7578C115.002 31.7578 115.528 32.0728 115.914 32.6572C116.171 33.0431 116.276 33.5462 116.323 34.1191H111.903C111.985 33.5345 112.149 33.0431 112.406 32.6572C112.78 32.0728 113.365 31.7578 114.184 31.7578Z" fill="white"/>
</svg>
