<svg width="32" height="32" viewBox="0 0 32 32" fill="none" xmlns="http://www.w3.org/2000/svg">
<path fill-rule="evenodd" clip-rule="evenodd" d="M9.54861 4H10.6667C11.4031 4 12 4.59696 12 5.33333C12 6.06972 11.4031 6.66667 10.6667 6.66667H9.6C8.83127 6.66667 8.33489 6.66771 7.95712 6.69857C7.59489 6.72816 7.46061 6.7784 7.39468 6.812C7.1438 6.93983 6.93983 7.1438 6.812 7.39468C6.7784 7.46061 6.72816 7.59489 6.69857 7.95712C6.66771 8.33489 6.66667 8.83127 6.66667 9.6V10.6667C6.66667 11.4031 6.06972 12 5.33333 12C4.59696 12 4 11.4031 4 10.6667V9.54861C3.99997 8.84575 3.99996 8.2394 4.04076 7.73996C4.08383 7.21284 4.17892 6.68855 4.43597 6.18404C4.81947 5.43139 5.43139 4.81947 6.18404 4.43597C6.68855 4.17892 7.21284 4.08383 7.73996 4.04076C8.2394 3.99996 8.84575 3.99997 9.54861 4ZM24.0429 6.69857C23.6651 6.66771 23.1688 6.66667 22.4 6.66667H21.3333C20.5969 6.66667 20 6.06972 20 5.33333C20 4.59696 20.5969 4 21.3333 4H22.4513C23.1543 3.99997 23.7607 3.99996 24.26 4.04076C24.7872 4.08383 25.3115 4.17892 25.816 4.43597C26.5687 4.81947 27.1805 5.43139 27.564 6.18404C27.8211 6.68855 27.9161 7.21284 27.9592 7.73996C28 8.23939 28 8.84573 28 9.54859V10.6667C28 11.4031 27.4031 12 26.6667 12C25.9303 12 25.3333 11.4031 25.3333 10.6667V9.6C25.3333 8.83127 25.3323 8.33489 25.3015 7.95712C25.2719 7.59489 25.2216 7.46061 25.188 7.39468C25.0601 7.1438 24.8563 6.93983 24.6053 6.812C24.5393 6.7784 24.4051 6.72816 24.0429 6.69857ZM16 10.6667C16.7364 10.6667 17.3333 11.2636 17.3333 12V14.6667H20C20.7364 14.6667 21.3333 15.2636 21.3333 16C21.3333 16.7364 20.7364 17.3333 20 17.3333H17.3333V20C17.3333 20.7364 16.7364 21.3333 16 21.3333C15.2636 21.3333 14.6667 20.7364 14.6667 20V17.3333H12C11.2636 17.3333 10.6667 16.7364 10.6667 16C10.6667 15.2636 11.2636 14.6667 12 14.6667H14.6667V12C14.6667 11.2636 15.2636 10.6667 16 10.6667ZM5.33333 20C6.06972 20 6.66667 20.5969 6.66667 21.3333V22.4C6.66667 23.1688 6.66771 23.6651 6.69857 24.0429C6.72816 24.4051 6.7784 24.5393 6.812 24.6053C6.93983 24.8563 7.1438 25.0601 7.39468 25.188C7.46061 25.2216 7.59489 25.2719 7.95712 25.3015C8.33489 25.3323 8.83127 25.3333 9.6 25.3333H10.6667C11.4031 25.3333 12 25.9303 12 26.6667C12 27.4031 11.4031 28 10.6667 28H9.54859C8.84573 28 8.23939 28 7.73996 27.9592C7.21284 27.9161 6.68855 27.8211 6.18404 27.564C5.43139 27.1805 4.81947 26.5687 4.43597 25.816C4.17892 25.3115 4.08383 24.7872 4.04076 24.26C3.99996 23.7607 3.99997 23.1543 4 22.4513V21.3333C4 20.5969 4.59696 20 5.33333 20ZM26.6667 20C27.4031 20 28 20.5969 28 21.3333V22.4515C28 23.1543 28 23.7607 27.9592 24.26C27.9161 24.7872 27.8211 25.3115 27.564 25.816C27.1805 26.5687 26.5687 27.1805 25.816 27.564C25.3115 27.8211 24.7872 27.9161 24.26 27.9592C23.7607 28 23.1543 28 22.4515 28H21.3333C20.5969 28 20 27.4031 20 26.6667C20 25.9303 20.5969 25.3333 21.3333 25.3333H22.4C23.1688 25.3333 23.6651 25.3323 24.0429 25.3015C24.4051 25.2719 24.5393 25.2216 24.6053 25.188C24.8563 25.0601 25.0601 24.8563 25.188 24.6053C25.2216 24.5393 25.2719 24.4051 25.3015 24.0429C25.3323 23.6651 25.3333 23.1688 25.3333 22.4V21.3333C25.3333 20.5969 25.9303 20 26.6667 20Z" fill="white"/>
</svg>
